<?xml version="1.0" standalone="no"?>
<!DOCTYPE svg PUBLIC "-//W3C//DTD SVG 20010904//EN"
 "http://www.w3.org/TR/2001/REC-SVG-20010904/DTD/svg10.dtd">
<svg version="1.0" xmlns="http://www.w3.org/2000/svg"
 width="500.000000pt" height="500.000000pt" viewBox="0 0 500.000000 500.000000"
 preserveAspectRatio="xMidYMid meet">

<g transform="translate(0.000000,500.000000) scale(0.100000,-0.100000)"
fill="#000000" stroke="none">
<path d="M1550 4050 c-68 -12 -114 -26 -150 -44 -18 -9 -39 -16 -47 -16 -7 0
-13 -3 -13 -8 0 -4 -13 -13 -28 -20 -38 -16 -126 -107 -173 -176 -35 -52 -48
-87 -78 -202 -7 -28 -11 -300 -11 -815 0 -662 2 -783 15 -829 9 -30 18 -66 21
-79 15 -71 104 -192 193 -264 124 -100 234 -125 561 -126 102 -1 201 -4 220
-8 35 -6 120 -78 120 -102 0 -6 5 -11 10 -11 6 0 10 -6 10 -14 0 -8 3 -16 8
-18 11 -5 101 -128 119 -163 20 -39 79 -114 112 -142 18 -16 39 -23 67 -23 37
0 45 5 81 48 34 40 92 123 128 181 13 22 66 92 86 114 9 10 24 33 34 50 9 18
34 44 54 57 35 24 42 25 306 31 371 10 435 29 579 173 115 114 154 198 176
381 12 93 12 1411 0 1500 -22 171 -64 259 -177 365 -77 73 -102 87 -263 151
-29 11 -200 14 -975 15 -517 1 -960 -2 -985 -6z m540 -946 c83 -69 107 -139
79 -225 -18 -54 -88 -115 -141 -122 -151 -21 -244 90 -212 252 8 37 47 80 96
105 44 22 145 17 178 -10z m1028 -9 c51 -34 74 -81 75 -155 1 -125 -90 -200
-222 -183 -71 10 -151 105 -151 181 0 27 19 90 33 107 34 45 54 60 107 79 34
13 119 -3 158 -29z m-1012 -637 c103 -88 119 -98 172 -118 78 -30 115 -35 232
-35 84 0 120 5 178 24 39 13 72 28 72 33 0 5 3 7 8 4 4 -2 46 27 92 65 98 80
125 86 171 40 44 -44 41 -97 -8 -145 -72 -70 -238 -161 -353 -192 -96 -26
-253 -24 -353 4 -84 24 -182 69 -234 108 -17 13 -34 24 -38 24 -3 0 -28 22
-56 49 -41 41 -49 54 -49 85 0 28 7 45 29 67 42 42 76 38 137 -13z"/>
</g>
</svg>
